<?xml version="1.0" encoding="UTF-8"?>
<svg width="187px" height="16px" viewBox="0 0 187 16" version="1.1" xmlns="http://www.w3.org/2000/svg" xmlns:xlink="http://www.w3.org/1999/xlink">
    <!-- Generator: Sketch 46.2 (44496) - http://www.bohemiancoding.com/sketch -->
    <title>SAP_cloud_R_neg</title>
    <desc>Created with Sketch.</desc>
    <defs></defs>
    <g id="SAPCP_14" stroke="none" stroke-width="1" fill-rule="evenodd">
        <g id="topNavigation" transform="translate(-110.000000, -32.000000)" fill="#FFFFFF">
            <g id="Group-33">
                <g id="Navigation" transform="translate(110.000000, 24.000000)">
                    <g id="SAP_cloud_R_neg" transform="translate(0.000000, 8.000000)">
                        <path d="M27.82475,7.66725811 L26.8005,7.66725811 L26.8005,3.91383644 L27.82475,3.91383644 C29.1904167,3.91383644 30.2798333,4.36810835 30.2798333,5.76546768 C30.2798333,7.2120398 29.1904167,7.66725811 27.82475,7.66725811 L27.82475,7.66725811 Z M16.8082778,10.3436768 C16.2666389,10.3436768 15.7575833,10.2485636 15.3193611,10.0829436 L16.7926944,5.42429055 L16.8205556,5.42429055 L18.2683889,10.09572 C17.833,10.2509296 17.3362222,10.3436768 16.8082778,10.3436768 Z M27.5518056,0.866902231 L22.90325,0.864063032 L22.90325,11.9388337 L18.8430833,0.864063032 L14.8164444,0.864063032 L11.3498611,10.126478 C10.9805833,7.79076329 8.56941667,6.98395744 6.67297222,6.38015436 C5.42063889,5.97651484 4.09180556,5.38406855 4.10408333,4.72868668 C4.11447222,4.19065839 4.81666667,3.69143248 6.20830556,3.76667127 C7.14377778,3.81635726 7.96875,3.89206924 9.61019444,4.68562549 L11.2251944,1.86772004 C9.72683333,1.10350219 7.65613889,0.620365079 5.95944444,0.61847228 L5.94952778,0.61847228 C3.97091667,0.61847228 2.32238889,1.26107775 1.3005,2.31962595 C0.587916667,3.05923741 0.204,3.99806602 0.187944444,5.03673982 C0.162444444,6.46580354 0.685194444,7.47987095 1.78405556,8.28856959 C2.71244444,8.97092386 3.89913889,9.41289257 4.94511111,9.73750771 C6.23569444,10.1378348 7.28875,10.48611 7.27694444,11.2290338 C7.26702778,11.499231 7.16455556,11.7519197 6.97094444,11.9563421 C6.64936111,12.2885284 6.15494444,12.4139264 5.47258333,12.4267028 C4.15602778,12.4546216 3.17947222,12.24736 1.62397222,11.326513 L0.187944444,14.1841672 C1.73919444,15.0681047 3.57661111,15.587205 5.44991667,15.587205 L5.69169444,15.5843658 C7.32322222,15.5550274 8.63930556,15.0889255 9.69094444,14.240478 C9.75186111,14.1926848 9.80569444,14.1429988 9.86188889,14.0937861 L9.39533333,15.341141 L13.6179444,15.341141 L14.32675,13.1814566 C15.0686111,13.435565 15.9124722,13.5756322 16.8082778,13.5756322 C17.6814167,13.5756322 18.5030833,13.4421898 19.23125,13.2027506 L19.9145556,15.341141 L26.8005,15.341141 L26.8005,10.8694019 L28.3016944,10.8694019 C31.9335556,10.8694019 34.0802778,9.01682425 34.0802778,5.91215965 C34.0802778,2.45448792 31.9935278,0.866902231 27.5518056,0.866902231 L27.5518056,0.866902231 Z" id="Fill-3"></path>
                        <path d="M170.874083,15.270161 L170.874083,4.79919347 L174.029944,4.79919347 L174.029944,6.44924155 C174.658,5.62398091 175.814944,4.58294111 177.461111,4.58294111 C179.206444,4.58294111 180.030472,5.30977617 180.324194,6.44924155 C180.951306,5.6433821 182.127611,4.58294111 183.774722,4.58294111 C185.892167,4.58294111 186.833306,5.91878445 186.833306,7.78508489 L186.833306,15.270161 L183.6765,15.270161 L183.6765,8.62974672 C183.6765,7.68665931 183.460694,7.195951 182.539861,7.195951 C181.755028,7.195951 181.127917,7.62798252 180.441778,8.2369908 L180.441778,15.270161 L177.284972,15.270161 L177.284972,8.62974672 C177.284972,7.68665931 177.069639,7.195951 176.147861,7.195951 C175.363972,7.195951 174.736861,7.62798252 174.029944,8.2369908 L174.029944,15.270161 L170.874083,15.270161 Z M162.744778,15.270161 L162.744778,4.79919347 L165.901111,4.79919347 L165.901111,6.54766713 L165.920944,6.54766713 C166.489972,5.6632565 167.489667,4.58294111 169.449861,4.58294111 L169.548083,4.58294111 L169.508417,7.39232896 C169.391306,7.37292777 168.881306,7.33317897 168.685333,7.33317897 C167.430639,7.33317897 166.489972,8.00133724 165.901111,8.7674479 L165.901111,15.270161 L162.744778,15.270161 Z M157.809111,10.0640156 C157.809111,8.31554198 157.201361,6.90114746 155.632167,6.90114746 C154.122944,6.90114746 153.437278,8.17831401 153.437278,10.0640156 C153.437278,11.8120161 154.024722,13.2666326 155.632167,13.2666326 C157.122972,13.2666326 157.809111,11.9695917 157.809111,10.0640156 Z M150.280472,10.0441412 C150.280472,5.93818565 153.084056,4.58294111 155.632167,4.58294111 C158.161861,4.58294111 160.965444,5.93818565 160.965444,10.0441412 C160.965444,14.1112945 158.161861,15.4868866 155.632167,15.4868866 C153.103417,15.4868866 150.280472,14.1112945 150.280472,10.0441412 Z M144.013139,15.270161 L144.013139,7.09752542 L142.26875,7.09752542 L142.26875,4.79919347 L144.013139,4.79919347 L144.013139,4.07188521 C144.013139,2.32341155 144.5425,0.653489073 147.64075,0.653489073 C148.2485,0.653489073 149.365306,0.751914654 149.541917,0.790717046 L149.541917,2.99156982 C149.385139,2.95182103 148.934167,2.91301863 148.620611,2.91301863 C147.856083,2.91301863 147.150111,3.05024661 147.150111,4.17031079 L147.150111,4.79919347 L149.424806,4.79919347 L149.424806,7.09752542 L147.150111,7.09752542 L147.150111,15.270161 L144.013139,15.270161 Z M135.412083,12.3235452 L135.412083,7.09752542 L133.667694,7.09752542 L133.667694,4.79919347 L135.412083,4.79919347 L135.412083,1.20382057 L138.549056,1.20382057 L138.549056,4.79919347 L141.235056,4.79919347 L141.235056,7.09752542 L138.549056,7.09752542 L138.549056,11.6355125 C138.549056,12.7560499 138.863083,13.1095303 140.000194,13.1095303 C140.352944,13.1095303 140.82375,13.0697815 141.038611,12.9912303 L141.038611,15.2507598 C140.803917,15.3099098 139.646972,15.4078622 138.961306,15.4078622 C135.863056,15.4078622 135.412083,14.2882712 135.412083,12.3235452 Z M129.352528,12.1465684 L129.352528,10.2012436 C126.862972,10.4572448 125.803778,11.0856542 125.803778,12.0481429 C125.803778,12.7163011 126.275056,13.0508535 126.960722,13.0508535 C128.058639,13.0508535 128.823167,12.6774987 129.352528,12.1465684 Z M122.725833,12.5989476 C122.725833,10.1823156 124.764889,8.84647228 129.352528,8.47311755 L129.352528,8.2175896 C129.352528,7.45100575 128.960583,6.96029745 127.941056,6.96029745 C126.607972,6.96029745 125.470861,7.50968254 124.509417,8.25639199 L123.176806,6.44924155 C124.216167,5.50615413 125.783944,4.58294111 128.392028,4.58294111 C131.254167,4.58294111 132.430944,5.99733563 132.430944,8.68889671 L132.430944,12.7163011 C132.430944,13.9735933 132.509333,14.7401771 132.725139,15.270161 L129.588167,15.270161 C129.450278,14.8386027 129.352528,14.3270736 129.352528,13.7379397 C128.392028,14.8187283 127.254917,15.4272634 125.705556,15.4272634 C124.098111,15.4272634 122.725833,14.3866968 122.725833,12.5989476 Z M117.879417,15.270161 L121.016389,15.270161 L121.016389,0.732040258 L117.879417,0.732040258 L117.879417,15.270161 Z M108.237111,7.62798252 L110.413583,7.62798252 C112.393611,7.62798252 113.138306,6.86187187 113.138306,5.46687854 C113.138306,4.1111608 112.412972,3.34505015 110.413583,3.34505015 L108.237111,3.34505015 L108.237111,7.62798252 Z M105.060944,15.270161 L105.060944,0.732040258 L110.335194,0.732040258 C113.4325,0.732040258 116.255917,1.5573009 116.255917,5.38832735 C116.255917,9.29743179 113.197806,10.1037644 110.296,10.1037644 L108.237111,10.1037644 L108.237111,15.270161 L105.060944,15.270161 Z M93.9320833,12.0287417 L93.9320833,8.15843961 C93.2464167,7.50968254 92.6773889,7.195951 91.8538333,7.195951 C90.5405833,7.195951 89.8549167,8.19771521 89.8549167,10.1037644 C89.8549167,11.8517649 90.4820278,13.0508535 91.8935,13.0508535 C92.6972222,13.0508535 93.4225556,12.5591988 93.9320833,12.0287417 Z M86.6981111,10.1226924 C86.6981111,6.50839153 88.3641111,4.58294111 90.7563889,4.58294111 C92.1678611,4.58294111 93.1878611,5.09352381 93.9320833,6.11516241 L93.9320833,0.732040258 L97.0888889,0.732040258 L97.0888889,12.7163011 C97.0888889,13.9735933 97.1672778,14.7401771 97.4029167,15.270161 L94.1677222,15.270161 C94.0303056,15.0151063 93.9320833,14.2295944 93.9320833,13.6991373 C93.2464167,14.6417516 92.2660833,15.4272634 90.7171944,15.4272634 C88.34475,15.4272634 86.6981111,13.7379397 86.6981111,10.1226924 Z M75.0446111,12.4418452 L75.0446111,4.79919347 L78.2018889,4.79919347 L78.2018889,11.518159 C78.2018889,12.4612464 78.5546389,12.9723023 79.43675,12.9723023 C80.2791944,12.9723023 81.0045278,12.5203964 81.7105,11.9104417 L81.7105,4.79919347 L84.8673056,4.79919347 L84.8673056,15.270161 L81.7105,15.270161 L81.7105,13.6399873 C81.0829167,14.4453736 79.9264444,15.4868866 78.1036667,15.4868866 C76.3191389,15.4868866 75.0446111,14.602476 75.0446111,12.4418452 Z M70.1896944,10.0640156 C70.1896944,8.31554198 69.5819444,6.90114746 68.0132222,6.90114746 C66.5035278,6.90114746 65.8178611,8.17831401 65.8178611,10.0640156 C65.8178611,11.8120161 66.4053056,13.2666326 68.0132222,13.2666326 C69.5035556,13.2666326 70.1896944,11.9695917 70.1896944,10.0640156 Z M62.6610556,10.0441412 C62.6610556,5.93818565 65.4646389,4.58294111 68.0132222,4.58294111 C70.5424444,4.58294111 73.3465,5.93818565 73.3465,10.0441412 C73.3465,14.1112945 70.5424444,15.4868866 68.0132222,15.4868866 C65.4844722,15.4868866 62.6610556,14.1112945 62.6610556,10.0441412 Z M57.6932778,15.270161 L60.8307222,15.270161 L60.8307222,0.732040258 L57.6932778,0.732040258 L57.6932778,15.270161 Z M43.1715,7.98146285 C43.1715,2.93241983 46.0926667,0.457111111 49.759,0.457111111 C53.4253333,0.457111111 55.0134167,2.42183713 55.6405278,5.03484702 L52.6216111,5.91878445 C52.1512778,4.24886197 51.4453056,3.1089234 49.7396389,3.1089234 C47.5433333,3.1089234 46.3670278,4.97617023 46.3670278,7.98146285 C46.3670278,11.0463787 47.583,12.9723023 49.7783611,12.9723023 C51.4840278,12.9723023 52.3274167,11.8915137 52.8369444,9.90691327 L55.8365,10.5745983 C55.131,13.5027594 53.4059722,15.5455634 49.759,15.5455634 C45.9750833,15.5455634 43.1715,13.1095303 43.1715,7.98146285 L43.1715,7.98146285 Z" id="Fill-4"></path>
                    </g>
                </g>
            </g>
        </g>
    </g>
</svg>
