<?xml version="1.0" encoding="UTF-8" standalone="no"?>
<!-- Created with Inkscape (http://www.inkscape.org/) -->
<svg id="svg2" xmlns:rdf="http://www.w3.org/1999/02/22-rdf-syntax-ns#" xmlns="http://www.w3.org/2000/svg" xml:space="preserve" height="13.303" width="14" version="1.1" xmlns:cc="http://creativecommons.org/ns#" xmlns:dc="http://purl.org/dc/elements/1.1/"><metadata id="metadata8"><rdf:RDF><cc:Work rdf:about=""><dc:format>image/svg+xml</dc:format><dc:type rdf:resource="http://purl.org/dc/dcmitype/StillImage"/><dc:title/></cc:Work></rdf:RDF></metadata><defs id="defs6"/><path id="path22" d="m7-0.0000025c-0.04175,0.080588-0.0965,0.12988-0.125,0.1875-0.66504,1.347-1.299,2.6866-1.9688,4.0312-0.033225,0.066675-0.119,0.14625-0.1875,0.15625-0.96262,0.14879-1.9424,0.29691-2.9062,0.4375-0.59726,0.087125-1.1893,0.1905-1.8125,0.28125,0.049625,0.057525,0.08875,0.08975,0.125,0.125,1.0907,1.0612,2.1634,2.1221,3.25,3.1875,0.052125,0.051075,0.10625,0.1465,0.09375,0.21875-0.1987,1.1951-0.41981,2.3997-0.625,3.5937-0.060875,0.3538-0.12275,0.71242-0.1875,1.0938,0.078463-0.03613,0.14138-0.0695,0.1875-0.09375,1.3352-0.70148,2.6671-1.3881,4-2.0938,0.10729-0.0568,0.17362-0.057,0.28125,0,1.3381,0.70844,2.6908,1.3898,4.0312,2.0938,0.04293,0.02262,0.09563,0.03725,0.15625,0.0625-0.0074-0.07292-0.02375-0.11012-0.03125-0.15625-0.25416-1.4809-0.49316-2.9572-0.75-4.4375-0.02025-0.11668-0.03712-0.21638,0.0625-0.3125,0.99676-0.96156,1.9758-1.9094,2.9688-2.875,0.12991-0.12638,0.27781-0.25474,0.4375-0.40625-0.15155-0.0235-0.24025-0.047375-0.34375-0.0625-1.44-0.2107-2.903-0.4211-4.3435-0.6261-0.1265-0.0179-0.1941-0.0732-0.25-0.1875-0.5951-1.2159-1.1818-2.4111-1.7812-3.625-0.0917-0.1856-0.1789-0.38568-0.2813-0.59375z" fill-rule="evenodd" fill="#FFF"/></svg>
