<svg id="contact-us" viewBox="0 0 16 12" width="100%"
     height="100%" xmlns="http://www.w3.org/2000/svg"><!-- Generator: Sketch 49.3 (51167) - http://www.bohemiancoding.com/sketch -->
    <title>ContactUs_icon@2x</title>
    <desc>Created with Sketch.</desc>
    <g id="Pricing_Cards_And_Tables" stroke="none" stroke-width="1" fill="none" fill-rule="evenodd">
        <g id="Artboard-Copy-2" transform="translate(-110.000000, -1831.000000)" fill="#0070B1">
            <g id="Pricing_Block" transform="translate(110.000000, 1114.000000)">
                <g id="Normal" transform="translate(0.000000, 217.000000)">
                    <g id="More_Block" transform="translate(0.000000, 498.000000)">
                        <path d="M15,2 C15.2916681,2 15.5312491,2.09374906 15.71875,2.28125 C15.9062509,2.46875094 16,2.70833188 16,3 L16,13 C16,13.2708347 15.9062509,13.5052073 15.71875,13.703125 C15.5312491,13.9010427 15.2916681,14 15,14 L1,14 C0.729165312,14 0.494792656,13.9010427 0.296875,13.703125 C0.0989573438,13.5052073 0,13.2708347 0,13 L0,3 C0,2.70833188 0.0989573438,2.46875094 0.296875,2.28125 C0.494792656,2.09374906 0.729165312,2 1,2 L15,2 Z M15,3 L1,3 L1,13 L15,13 L15,3 Z M14,5.5 C14,5.62500063 13.9531255,5.73958281 13.859375,5.84375 C13.7656245,5.94791719 13.6458341,6 13.5,6 L12.5,6 C12.3541659,6 12.2343755,5.94791719 12.140625,5.84375 C12.0468745,5.73958281 12,5.62500063 12,5.5 L12,4.5 C12,4.166665 12.166665,4 12.5,4 L13.5,4 C13.833335,4 14,4.166665 14,4.5 L14,5.5 Z M8.5,7 C8.833335,7 9,7.166665 9,7.5 C9,7.62500063 8.95312547,7.73958281 8.859375,7.84375 C8.76562453,7.94791719 8.64583406,8 8.5,8 L3.5,8 C3.37499937,8 3.26041719,7.94791719 3.15625,7.84375 C3.05208281,7.73958281 3,7.62500063 3,7.5 C3,7.35416594 3.05208281,7.23437547 3.15625,7.140625 C3.26041719,7.04687453 3.37499937,7 3.5,7 L8.5,7 Z M5.5,9 C5.833335,9 6,9.166665 6,9.5 C6,9.62500063 5.95312547,9.73958281 5.859375,9.84375 C5.76562453,9.94791719 5.64583406,10 5.5,10 L3.5,10 C3.37499937,10 3.26041719,9.94791719 3.15625,9.84375 C3.05208281,9.73958281 3,9.62500063 3,9.5 C3,9.35416594 3.05208281,9.23437547 3.15625,9.140625 C3.26041719,9.04687453 3.37499937,9 3.5,9 L5.5,9 Z"
                              id="ContactUs_icon"></path>
                    </g>
                </g>
            </g>
        </g>
    </g>
</svg>