<svg id="wallet" viewBox="0 0 16 14" width="100%"
     height="100%" xmlns="http://www.w3.org/2000/svg"><!-- Generator: Sketch 49.3 (51167) - http://www.bohemiancoding.com/sketch -->
    <title>Wallet_Icon@2x</title>
    <desc>Created with Sketch.</desc>
    <g id="Pricing_Cards_And_Tables" stroke="none" stroke-width="1" fill="none" fill-rule="evenodd">
        <g id="Artboard-Copy-2" transform="translate(-110.000000, -1861.000000)" fill="#0070B1">
            <g id="Pricing_Block" transform="translate(110.000000, 1114.000000)">
                <g id="Normal" transform="translate(0.000000, 217.000000)">
                    <g id="More_Block" transform="translate(0.000000, 498.000000)">
                        <path d="M14,38 C14.5416694,38 15.0104147,38.1979147 15.40625,38.59375 C15.8020853,38.9895853 16,39.4583306 16,40 L16,41 C16,41.5416694 15.8020853,42.0104147 15.40625,42.40625 C15.0104147,42.8020853 14.5416694,43 14,43 L14,45 C14,45.2916681 13.9010427,45.5312491 13.703125,45.71875 C13.5052073,45.9062509 13.2708347,46 13,46 L1,46 C0.708331875,46 0.468750937,45.9062509 0.28125,45.71875 C0.0937490625,45.5312491 0,45.2916681 0,45 L0,36 C0,35.7291653 0.0937490625,35.4947927 0.28125,35.296875 C0.468750937,35.0989573 0.708331875,35 1,35 L2,35 L2,33 C2,32.7291653 2.09374906,32.4947927 2.28125,32.296875 C2.46875094,32.0989573 2.70833187,32 3,32 L7,32 C7.27083469,32 7.50520734,32.0989573 7.703125,32.296875 C7.90104266,32.4947927 8,32.7291653 8,33 L11,33 C11.2708347,33 11.5052073,33.0989573 11.703125,33.296875 C11.9010427,33.4947927 12,33.7291653 12,34 L12,35 L13,35 C13.2708347,35 13.5052073,35.0989573 13.703125,35.296875 C13.9010427,35.4947927 14,35.7291653 14,36 L14,38 Z M8,35 L11,35 L11,34 L8,34 L8,35 Z M3,35 L7,35 L7,33 L3,33 L3,35 Z M13,43 L11,43 C10.4374972,43 9.96354359,42.8020853 9.578125,42.40625 C9.19270641,42.0104147 9,41.5416694 9,41 L9,40 C9,39.4583306 9.19270641,38.9895853 9.578125,38.59375 C9.96354359,38.1979147 10.4374972,38 11,38 L13,38 L13,36 L1,36 L1,45 L13,45 L13,43 Z M15,40 C15,39.7291653 14.9010427,39.4947927 14.703125,39.296875 C14.5052073,39.0989573 14.2708347,39 14,39 L11,39 C10.7083319,39 10.4687509,39.0989573 10.28125,39.296875 C10.0937491,39.4947927 10,39.7291653 10,40 L10,41 C10,41.2916681 10.0937491,41.5312491 10.28125,41.71875 C10.4687509,41.9062509 10.7083319,42 11,42 L14,42 C14.2708347,42 14.5052073,41.9062509 14.703125,41.71875 C14.9010427,41.5312491 15,41.2916681 15,41 L15,40 Z M11.5,40 C11.6250006,40 11.7395828,40.0468745 11.84375,40.140625 C11.9479172,40.2343755 12,40.3541659 12,40.5 C12,40.6458341 11.9479172,40.7656245 11.84375,40.859375 C11.7395828,40.9531255 11.6250006,41 11.5,41 C11.166665,41 11,40.833335 11,40.5 C11,40.166665 11.166665,40 11.5,40 Z"
                              id="Wallet_Icon"></path>
                    </g>
                </g>
            </g>
        </g>
    </g>
</svg>